HIERARCHY
ROOT Hips
{
	OFFSET	0.00	0.00	0.00
	CHANNELS 6 Xposition Yposition Zposition Zrotation Xrotation Yrotation
	JOINT LeftUpLeg
	{
		OFFSET	 0.126116	-0.065224	 0.014019
		CHANNELS 3 Zrotation Xrotation Yrotation
		JOINT LeftLeg
		{
			OFFSET	 0.000000	 0.569914	 0.000000
			CHANNELS 3 Zrotation Xrotation Yrotation
			JOINT LeftFoot
			{
				OFFSET	 0.000000	 0.544423	 0.000000
				CHANNELS 3 Zrotation Xrotation Yrotation
				JOINT LeftToeBase
				{
					OFFSET	 0.000000	 0.207117	 0.000000
					CHANNELS 3 Zrotation Xrotation Yrotation
					End Site
					{
						OFFSET	 0.000000	 0.207117	 0.000000
					}
				}
			}
		}
	}
	JOINT RightUpLeg
	{
		OFFSET	-0.124023	-0.065224	 0.008373
		CHANNELS 3 Zrotation Xrotation Yrotation
		JOINT RightLeg
		{
			OFFSET	 0.000000	 0.570047	 0.000000
			CHANNELS 3 Zrotation Xrotation Yrotation
			JOINT RightFoot
			{
				OFFSET	 0.000000	 0.544354	 0.000000
				CHANNELS 3 Zrotation Xrotation Yrotation
				JOINT RightToeBase
				{
					OFFSET	 0.000000	 0.207540	 0.000000
					CHANNELS 3 Zrotation Xrotation Yrotation
					End Site
					{
						OFFSET	 0.000000	 0.207540	 0.000000
					}
				}
			}
		}
	}
	JOINT Spine
	{
		OFFSET	 0.000184	 0.117403	 0.007763
		CHANNELS 3 Zrotation Xrotation Yrotation
		JOINT Spine1
		{
			OFFSET	 0.000000	 0.137269	 0.000000
			CHANNELS 3 Zrotation Xrotation Yrotation
			JOINT Spine2
			{
				OFFSET	 0.000000	 0.156879	 0.000000
				CHANNELS 3 Zrotation Xrotation Yrotation
				JOINT LeftShoulder
				{
					OFFSET	 0.080501	 0.160143	 0.002496
					CHANNELS 3 Zrotation Xrotation Yrotation
					JOINT LeftArm
					{
						OFFSET	 0.000000	 0.164363	 0.000000
						CHANNELS 3 Zrotation Xrotation Yrotation
						JOINT LeftForeArm
						{
							OFFSET	 0.000000	 0.364576	 0.000000
							CHANNELS 3 Zrotation Xrotation Yrotation
							JOINT LeftHand
							{
								OFFSET	 0.000000	 0.360812	 0.000000
								CHANNELS 3 Zrotation Xrotation Yrotation
								JOINT LeftHandIndex1
								{
									OFFSET	 0.000000	 0.086006	 0.000000
									CHANNELS 3 Zrotation Xrotation Yrotation
									JOINT LeftHandIndex2
									{
										OFFSET	 0.000000	 0.047237	 0.000000
										CHANNELS 3 Zrotation Xrotation Yrotation
										JOINT LeftHandIndex3
										{
											OFFSET	-0.004284	 0.038165	 0.000551
											CHANNELS 3 Zrotation Xrotation Yrotation
											End Site
											{
												OFFSET	-0.004284	 0.038165	 0.000551
											}
										}
									}
								}
							}
						}
					}
				}
				JOINT Neck
				{
					OFFSET	 0.000000	 0.176489	 0.000000
					CHANNELS 3 Zrotation Xrotation Yrotation
					JOINT Head
					{
						OFFSET	 0.000000	 0.077941	 0.001747
						CHANNELS 3 Zrotation Xrotation Yrotation
						End Site
						{
							OFFSET	 0.000000	 0.077941	 0.001747
						}
					}
				}
				JOINT RightShoulder
				{
					OFFSET	-0.080363	 0.159706	-0.000306
					CHANNELS 3 Zrotation Xrotation Yrotation
					JOINT RightArm
					{
						OFFSET	 0.000000	 0.164196	 0.000000
						CHANNELS 3 Zrotation Xrotation Yrotation
						JOINT RightForeArm
						{
							OFFSET	 0.000000	 0.365611	 0.000000
							CHANNELS 3 Zrotation Xrotation Yrotation
							JOINT RightHand
							{
								OFFSET	 0.000000	 0.360648	 0.000000
								CHANNELS 3 Zrotation Xrotation Yrotation
								JOINT RightHandIndex1
								{
									OFFSET	 0.000000	 0.069977	 0.000000
									CHANNELS 3 Zrotation Xrotation Yrotation
									JOINT RightHandIndex2
									{
										OFFSET	 0.000000	 0.052305	 0.000000
										CHANNELS 3 Zrotation Xrotation Yrotation
										JOINT RightHandIndex3
										{
											OFFSET	 0.009002	 0.042196	 0.000782
											CHANNELS 3 Zrotation Xrotation Yrotation
											End Site
											{
												OFFSET	 0.009002	 0.042196	 0.000782
											}
										}
									}
								}
							}
						}
					}
				}
			}
		}
	}
}
MOTION
Frames:    8
Frame Time: 0.03333334
-0.004220	 1.269232	-0.017952	 0.992613	 1.130599	 179.862300	-177.570400	 6.205958	-13.452620	 3.657647	-17.907480	 5.579290	 1.859298	 71.235620	-0.969461	 1.331492	 28.938720	-2.729976	 178.586500	 5.647283	 18.806300	-5.021327	-16.106450	-5.264035	 5.470385	 70.462260	-5.228426	-1.318126	 28.749090	 2.190057	-0.557771	 2.167313	-3.635096	-0.969359	 2.055521	-2.368166	-1.191930	-2.024461	 4.188992	-113.435300	 5.271016	 92.894770	 20.744460	 54.181740	 26.460330	 4.936130	-0.255091	-0.072876	-7.521497	-11.856510	-27.236510	-6.580301	 5.266122	 0.000000	 0.000000	 0.000000	 0.000000	 0.000000	 0.000000	 0.000000	 4.535901	-0.508030	 0.080119	 1.987269	 2.305462	 3.444205	 114.239600	-4.580875	-88.291690	-54.297700	 21.000260	 53.013080	-73.071310	-2.155507	-1.538574	-28.095060	-53.681010	-3.464046	-0.359271	 10.568930	 0.744428	 11.977600	 9.304049	-2.093206	-8.359006	 3.143580	 0.104712
-0.003400	 1.269371	-0.016243	 0.918562	 1.128857	 179.280400	-177.513700	 6.051660	-13.962090	 3.602520	-17.654810	 4.898269	-0.134408	 71.100940	 1.112148	 1.331492	 28.938720	-2.729976	 178.661900	 5.824110	 18.201750	-5.046227	-16.181930	-5.838964	 3.877645	 70.489030	-3.534758	-1.316006	 28.719590	 2.240811	-0.562226	 2.188532	-3.748881	-0.883211	 2.131136	-2.429318	-1.159566	-2.020826	 4.398258	-113.435200	 5.308515	 92.909460	 16.409700	 53.959130	 29.861350	 4.877569	-0.252095	-0.073182	-6.987147	-10.931380	-27.733530	-6.580301	 5.266122	 0.000000	 0.000000	 0.000000	 0.000000	 0.000000	 0.000000	 0.000000	 4.651795	-0.507614	 0.134087	 1.853848	 2.345105	 3.634131	 114.251600	-4.658184	-88.232720	-55.527060	 14.924350	 53.309860	-75.260280	-2.178987	-1.621380	-24.173500	-41.753040	-2.650768	-0.359350	 10.571080	 0.744448	 11.977630	 9.306161	-2.093659	-8.359026	 3.144650	 0.104634
-0.002547	 1.269484	-0.014616	 0.852097	 1.126157	 178.766500	-177.461700	 5.914083	-14.411990	 3.552158	-17.423350	 4.281792	-1.916034	 70.955020	 2.972174	 1.331492	 28.938720	-2.729976	 178.738100	 5.984838	 17.667140	-5.068870	-16.250510	-6.344113	 2.462048	 70.499780	-2.039427	-1.314108	 28.693520	 2.285676	-0.567064	 2.206035	-3.850935	-0.816385	 2.223569	-2.486532	-1.125561	-2.030329	 4.578946	-113.435100	 5.341641	 92.922390	 12.507320	 53.761040	 32.916570	 4.814501	-0.248892	-0.073390	-6.470800	-10.238010	-28.159530	-6.580301	 5.266122	 0.000000	 0.000000	 0.000000	 0.000000	 0.000000	 0.000000	 0.000000	 4.754269	-0.507156	 0.181805	 1.735793	 2.379668	 3.801107	 114.262300	-4.726560	-88.180550	-57.213010	 8.794559	 53.840000	-76.331880	-2.189341	-1.662222	-21.496200	-31.307910	-1.977356	-0.359420	 10.572970	 0.744465	 11.977650	 9.308026	-2.094060	-8.359043	 3.145597	 0.104564
-0.001414	 1.269575	-0.012822	 0.776802	 1.123967	 178.209000	-177.405900	 5.773429	-14.899900	 3.499760	-17.181820	 3.598305	-3.864167	 70.773830	 5.006423	 1.331492	 28.938720	-2.729976	 178.823600	 6.169897	 17.086400	-5.096960	-16.335560	-6.889843	 0.927645	 70.497540	-0.423500	-1.312021	 28.665220	 2.334362	-0.575454	 2.224105	-3.898864	-0.792617	 2.337352	-2.486716	-1.066310	-2.047276	 4.770320	-113.435000	 5.377622	 92.936470	 8.920035	 53.597210	 35.686390	 4.748599	-0.245436	-0.073634	-6.236832	-9.433581	-28.456040	-6.580301	 5.266122	 0.000000	 0.000000	 0.000000	 0.000000	 0.000000	 0.000000	 0.000000	 4.865494	-0.506562	 0.233596	 1.607571	 2.416695	 3.981289	 114.274000	-4.800740	-88.123900	-59.203410	 3.438942	 54.085780	-77.607160	-2.200663	-1.711139	-20.566580	-20.507760	-2.149950	-0.359496	 10.575020	 0.744483	 11.977680	 9.310053	-2.094494	-8.359061	 3.146625	 0.104488
-0.000008	 1.269609	-0.011110	 0.696515	 1.125380	 177.658000	-177.353200	 5.653192	-15.383430	 3.454405	-16.972310	 2.906626	-5.812428	 70.576960	 7.041741	 1.331492	 28.938720	-2.729976	 178.903900	 6.369617	 16.509950	-5.131303	-16.439430	-7.429045	-0.585032	 70.480970	 1.170391	-1.309927	 28.637160	 2.382614	-0.589545	 2.243627	-3.816940	-0.857652	 2.447575	-2.357424	-0.968408	-2.063006	 4.955026	-113.435000	 5.413295	 92.950420	 6.646496	 53.580160	 37.379170	 4.704299	-0.243174	-0.073868	-6.678742	-8.413927	-28.446790	-6.580301	 5.266122	 0.000000	 0.000000	 0.000000	 0.000000	 0.000000	 0.000000	 0.000000	 4.975757	-0.505874	 0.284939	 1.480367	 2.452911	 4.158775	 114.285700	-4.874250	-88.067750	-60.641760	 2.021843	 53.390450	-81.440680	-2.228018	-1.859239	-21.266150	-10.744880	-4.046325	-0.359571	 10.577060	 0.744501	 11.977700	 9.312060	-2.094926	-8.359081	 3.147644	 0.104413
 0.001693	 1.269586	-0.009736	 0.657755	 1.165538	 177.788300	-177.320100	 5.649416	-15.244800	 3.437699	-16.894990	 2.916279	-5.838469	 70.468350	 6.996127	 1.331492	 28.938720	-2.729976	 178.938900	 6.411445	 16.618340	-5.143447	-16.476150	-7.507602	-0.856387	 70.504460	 1.412280	-1.307769	 28.608700	 2.434552	-0.587083	 2.246854	-3.761187	-0.847251	 2.646264	-2.344187	-0.993334	-2.166645	 4.867342	-113.435600	 5.433817	 92.967180	 5.705928	 53.763030	 37.706820	 4.687597	-0.242256	-0.073931	-5.569419	-8.890092	-28.239040	-6.580301	 5.266122	 0.000000	 0.000000	 0.000000	 0.000000	 0.000000	 0.000000	 0.000000	 5.042933	-0.477791	 0.210092	 1.939545	 2.330146	 3.971045	 114.284600	-4.864859	-88.069820	-58.821030	 3.348932	 47.668980	-88.557140	-2.252368	-2.137809	-21.174380	-8.176727	-3.666763	-0.386511	 11.349470	 0.749629	 11.988720	 10.067910	-2.257679	-8.367167	 3.564595	 0.077725
 0.003767	 1.269524	-0.008363	 0.621899	 1.212691	 178.037300	-177.285200	 5.671491	-14.998870	 3.427615	-16.848260	 3.047722	-5.555607	 70.376630	 6.605996	 1.331492	 28.938720	-2.729976	 178.967000	 6.439773	 16.844530	-5.154387	-16.509190	-7.509033	-0.929702	 70.531940	 1.432260	-1.305558	 28.579950	 2.487514	-0.585881	 2.260794	-3.636998	-0.875705	 2.828232	-2.276827	-1.018733	-2.232742	 4.732051	-113.436300	 5.451944	 92.984570	 5.436879	 54.153910	 37.449380	 4.682473	-0.242069	-0.073980	-4.484574	-9.587193	-27.828740	-6.580301	 5.266122	 0.000000	 0.000000	 0.000000	 0.000000	 0.000000	 0.000000	 0.000000	 5.103351	-0.444928	 0.113138	 2.500575	 2.184040	 3.720683	 114.281200	-4.841255	-88.081830	-57.085720	 6.230428	 39.487510	-97.431920	-2.234173	-2.485946	-20.418640	-7.554013	-5.448704	-0.418434	 12.259370	 0.756165	 12.004550	 10.958270	-2.450105	-8.376445	 4.055685	 0.046352
 0.006332	 1.269416	-0.006818	 0.577444	 1.266371	 178.314000	-177.245300	 5.706227	-14.725980	 3.419147	-16.809070	 3.194585	-5.253301	 70.274410	 6.179712	 1.331492	 28.938720	-2.729976	 178.996200	 6.486149	 17.095660	-5.171128	-16.559710	-7.511458	-1.014264	 70.561240	 1.454809	-1.303069	 28.548020	 2.546301	-0.589521	 2.285827	-3.418492	-0.960846	 3.012444	-2.121253	-1.025302	-2.275242	 4.578073	-113.437100	 5.472056	 93.003880	 5.742160	 54.753680	 36.678640	 4.688880	-0.242355	-0.073917	-3.630116	-10.277750	-27.186220	-6.580301	 5.266122	 0.000000	 0.000000	 0.000000	 0.000000	 0.000000	 0.000000	 0.000000	 5.170496	-0.408560	 0.005451	 3.121883	 2.023021	 3.443597	 114.277600	-4.815058	-88.095150	-56.494880	 10.302190	 28.032010	-106.052100	-2.165316	-2.817408	-19.885990	-7.206669	-11.098510	-0.454145	 13.269810	 0.764060	 12.025760	 11.946930	-2.664800	-8.386442	 4.600974	 0.011587
